<?xml version="1.0" encoding="UTF-8" standalone="no"?>
<!-- Created with Inkscape (http://www.inkscape.org/) -->

<svg
   xmlns:dc="http://purl.org/dc/elements/1.1/"
   xmlns:cc="http://creativecommons.org/ns#"
   xmlns:rdf="http://www.w3.org/1999/02/22-rdf-syntax-ns#"
   xmlns:svg="http://www.w3.org/2000/svg"
   xmlns="http://www.w3.org/2000/svg"
   xmlns:sodipodi="http://sodipodi.sourceforge.net/DTD/sodipodi-0.dtd"
   xmlns:inkscape="http://www.inkscape.org/namespaces/inkscape"
   width="128"
   height="128"
   id="svg2"
   version="1.1"
   inkscape:version="0.47 r22583"
   sodipodi:docname="amoeba.svg"
   inkscape:export-filename="/Users/acabrera/src/Blocks/amoeba512.png"
   inkscape:export-xdpi="360"
   inkscape:export-ydpi="360">
  <defs
     id="defs4">
    <inkscape:path-effect
       effect="spiro"
       id="path-effect3594"
       is_visible="true" />
    <inkscape:perspective
       sodipodi:type="inkscape:persp3d"
       inkscape:vp_x="0 : 526.18109 : 1"
       inkscape:vp_y="0 : 1000 : 0"
       inkscape:vp_z="744.09448 : 526.18109 : 1"
       inkscape:persp3d-origin="372.04724 : 350.78739 : 1"
       id="perspective10" />
  </defs>
  <sodipodi:namedview
     id="base"
     pagecolor="#ffffff"
     bordercolor="#666666"
     borderopacity="1.0"
     inkscape:pageopacity="0.0"
     inkscape:pageshadow="2"
     inkscape:zoom="3.959798"
     inkscape:cx="59.633907"
     inkscape:cy="61.04414"
     inkscape:document-units="px"
     inkscape:current-layer="layer1"
     showgrid="false"
     inkscape:window-width="1350"
     inkscape:window-height="829"
     inkscape:window-x="93"
     inkscape:window-y="22"
     inkscape:window-maximized="0" />
  <metadata
     id="metadata7">
    <rdf:RDF>
      <cc:Work
         rdf:about="">
        <dc:format>image/svg+xml</dc:format>
        <dc:type
           rdf:resource="http://purl.org/dc/dcmitype/StillImage" />
        <dc:title></dc:title>
      </cc:Work>
    </rdf:RDF>
  </metadata>
  <g
     inkscape:label="Layer 1"
     inkscape:groupmode="layer"
     id="layer1"
     transform="translate(0,-924.36218)">
    <path
       style="fill:#1c7717;fill-opacity:1;stroke:#000000;stroke-width:5.54909849;stroke-linecap:butt;stroke-linejoin:miter;stroke-miterlimit:4;stroke-opacity:1;stroke-dasharray:none"
       d="m 47.464664,976.83369 c -0.07499,-1.76478 -0.669752,-3.49087 -1.608999,-4.98683 -0.939247,-1.49595 -2.215239,-2.76651 -3.654958,-3.78988 -2.879439,-2.04673 -6.347442,-3.08946 -9.801475,-3.83104 -3.454033,-0.74158 -6.975493,-1.21897 -10.34096,-2.29317 -3.365466,-1.07421 -6.634612,-2.81973 -8.801792,-5.60964 -1.972803,-2.53968 -2.898736,-5.83168 -2.719783,-9.04258 0.178954,-3.21091 1.429982,-6.3265 3.377028,-8.88599 1.947047,-2.55948 4.569991,-4.57214 7.469533,-5.96303 2.899542,-1.3909 6.070985,-2.17237 9.272212,-2.47911 6.662001,-0.63835 13.367434,0.75397 19.741536,2.79372 6.374102,2.03975 12.525146,4.72757 18.89012,6.79563 6.784156,2.20425 13.789649,3.69735 20.517988,6.06652 6.728339,2.36917 13.296966,5.71976 18.113676,10.98121 3.98581,4.35382 6.59307,9.83846 8.1633,15.52852 1.57024,5.69006 2.14803,11.60661 2.45303,17.50147 0.54044,10.44541 0.13704,21.36861 -4.71837,30.63271 -3.4134,6.5127 -8.88241,11.8232 -15.155447,15.6593 -6.273035,3.8362 -13.334388,6.2548 -20.527233,7.7812 -15.005825,3.1845 -31.085599,2.4651 -45.119415,-3.7291 -3.375428,-1.4898 -6.663368,-3.3194 -9.267911,-5.9327 -2.604542,-2.6133 -4.482893,-6.0951 -4.592301,-9.7831 -0.06503,-2.1919 0.492195,-4.3761 1.425084,-6.3607 0.932889,-1.9846 2.233183,-3.7793 3.683898,-5.4238 2.90143,-3.2889 6.406508,-5.9995 9.341026,-9.2589 4.440137,-4.93173 7.437459,-10.95628 10.616333,-16.78136 0.818967,-1.50071 1.655871,-2.99843 2.28093,-4.58969 0.62506,-1.59127 1.035531,-3.29157 0.96295,-4.99966"
       id="path3592"
       inkscape:path-effect="#path-effect3594"
       inkscape:original-d="m 47.464664,976.83369 c -4.617299,-11.63751 -31.172431,-8.45624 -34.208184,-20.51056 -2.512843,-9.97796 6.889253,-22.55061 17.39899,-26.37071 12.389126,-4.50324 26.139323,5.32508 38.631656,9.58935 13.406456,4.57628 29.40483,7.14196 38.631664,17.04773 8.17137,8.77266 9.70129,21.59521 10.61633,33.02999 0.82282,10.28241 1.15081,21.79101 -4.71837,30.63271 -7.56303,11.3933 -21.50353,19.9129 -35.68268,23.4405 -14.56041,3.6227 -31.827326,2.7474 -45.119415,-3.7291 -6.526005,-3.1797 -13.424864,-9.0298 -13.860212,-15.7158 -0.536521,-8.2401 9.77402,-13.9518 14.450008,-21.0434 3.649769,-5.53529 7.787295,-10.86715 10.616333,-16.78136 1.467656,-3.06819 4.49224,-6.44297 3.24388,-9.58935 z"
       sodipodi:nodetypes="caaaaaaaaaaaa" />
    <path
       sodipodi:type="arc"
       style="fill:#ffffff;fill-opacity:1;stroke:#000000;stroke-width:5;stroke-miterlimit:0;stroke-opacity:1;stroke-dasharray:none"
       id="path3596"
       sodipodi:cx="74.372482"
       sodipodi:cy="71.305191"
       sodipodi:rx="12.248099"
       sodipodi:ry="13.51079"
       d="m 86.620582,71.305191 c 0,7.461803 -5.483661,13.51079 -12.2481,13.51079 -6.764438,0 -12.248099,-6.048987 -12.248099,-13.51079 0,-7.461803 5.483661,-13.51079 12.248099,-13.51079 6.764439,0 12.2481,6.048987 12.2481,13.51079 z"
       transform="matrix(1.167737,0,0,1.0547749,-9.4506762,935.85142)" />
  </g>
</svg>
